<svg width="16" height="16" viewBox="0 0 16 16" fill="none" xmlns="http://www.w3.org/2000/svg">
<g clip-path="url(#clip0_3142_9758)">
<path d="M8 1.33398C10.5773 1.33398 12.6667 3.42332 12.6667 6.00065V8.66732L13.7333 9.46732C13.9012 9.59322 14 9.79081 14 10.0007V11.334C14 11.7022 13.7015 12.0007 13.3333 12.0007H2.66667C2.29848 12.0007 2 11.7022 2 11.334V10.0007C2 9.79081 2.0988 9.59322 2.26667 9.46732L3.33333 8.66732V6.00065C3.33333 3.42332 5.42267 1.33398 8 1.33398Z" fill="black"/>
<path d="M8.00001 14.6673C6.88088 14.6673 5.92277 13.9779 5.52718 13.0007H10.4728C10.0772 13.9779 9.11913 14.6673 8.00001 14.6673Z" fill="black"/>
</g>
<defs>
<clipPath id="clip0_3142_9758">
<rect width="13.3333" height="13.3333" fill="white" transform="translate(1.33301 1.33398)"/>
</clipPath>
</defs>
</svg>
